<?xml version="1.0" standalone="no"?>
<!DOCTYPE svg PUBLIC "-//W3C//DTD SVG 20010904//EN"
 "http://www.w3.org/TR/2001/REC-SVG-20010904/DTD/svg10.dtd">
<svg version="1.0" xmlns="http://www.w3.org/2000/svg"
 width="547.000000pt" height="287.000000pt" viewBox="0 0 547.000000 287.000000"
 preserveAspectRatio="xMidYMid meet">

<g transform="translate(0.000000,287.000000) scale(0.100000,-0.100000)"
fill="#000000" stroke="none">
<path d="M46 2821 c-6 -10 -9 -2762 -3 -2768 2 -2 1201 -3 2664 -3 2362 0
2661 -2 2667 -15 7 -19 32 -20 43 -2 4 8 16 16 26 20 23 9 22 38 -3 44 -20 5
-20 11 -20 1367 l1 1361 -2685 3 c-1548 1 -2687 -2 -2690 -7z m5324 -1381 l0
-1340 -2640 0 -2640 0 0 1340 0 1340 2640 0 2640 0 0 -1340z"/>
<path d="M658 2403 c-10 -2 -18 -9 -18 -14 0 -5 -6 -9 -13 -9 -12 0 -206 -375
-222 -430 -4 -14 -22 -54 -40 -90 -50 -101 -50 -102 -11 -162 75 -113 100
-270 58 -373 -25 -65 -44 -76 -75 -47 -20 19 -34 22 -103 22 -94 0 -117 -12
-112 -55 2 -23 10 -32 33 -39 17 -6 31 -11 33 -12 8 -5 9 -55 1 -60 -5 -3 -6
-24 -3 -47 5 -40 3 -43 -28 -58 -39 -19 -47 -43 -22 -70 14 -16 31 -19 99 -19
93 0 105 7 105 62 0 42 19 58 67 58 37 0 53 -16 53 -53 0 -55 15 -67 80 -67
70 0 63 28 60 -225 -1 -152 -4 -172 -21 -191 -13 -14 -19 -35 -19 -67 0 -72
20 -72 93 1 l60 60 0 92 c0 101 5 110 69 110 39 0 58 -15 58 -46 0 -12 6 -35
14 -51 7 -15 21 -53 31 -83 37 -118 107 -306 121 -321 8 -8 14 -21 14 -27 0
-9 51 -12 190 -12 l190 0 0 67 c0 63 -5 78 -131 358 -141 317 -151 352 -94
348 33 -2 94 -61 117 -114 l13 -29 1832 0 1833 0 1 165 c0 91 1 181 1 200 0
19 -1 78 -1 130 l-1 95 -1823 0 -1824 0 -17 -38 c-23 -50 -83 -89 -151 -97
-64 -8 -75 -3 -75 35 0 45 34 70 96 70 59 0 71 10 72 60 1 54 -10 60 -109 60
-76 0 -95 -3 -127 -23 -20 -13 -86 -50 -147 -82 -60 -32 -150 -80 -200 -106
-95 -51 -125 -58 -144 -35 -30 36 41 133 136 183 68 37 153 63 200 63 33 0 36
3 65 68 16 37 53 117 80 177 28 61 57 126 65 145 9 19 38 81 64 138 27 57 49
113 49 123 0 33 -29 54 -160 118 -68 34 -129 66 -134 71 -6 6 -17 10 -26 10
-8 0 -48 16 -89 35 -72 35 -80 37 -113 28z"/>
<path d="M1660 2380 c-55 -10 -121 -44 -168 -85 -156 -138 -194 -443 -81 -642
77 -135 236 -210 377 -179 l33 8 -3 80 -3 79 -71 2 c-60 2 -76 6 -106 29 -90
68 -129 218 -97 367 15 72 46 112 109 144 44 22 66 27 110 26 l55 -3 3 81 3
82 -48 7 c-26 3 -55 7 -63 9 -8 1 -31 -1 -50 -5z"/>
<path d="M1930 1925 l0 -446 88 3 87 3 1 170 c1 94 2 176 3 183 1 8 26 12 91
12 l90 0 0 -185 0 -185 85 0 85 0 0 445 0 445 -90 0 -90 0 0 -175 0 -176 -87
3 -87 3 -1 170 0 170 -87 3 -88 3 0 -446z"/>
<path d="M2767 2363 c-3 -5 -8 -24 -11 -43 -4 -19 -18 -82 -31 -140 -78 -333
-155 -678 -155 -692 0 -5 39 -7 87 -6 l87 3 19 73 20 73 85 -3 85 -3 16 -70
16 -70 93 -3 c50 -1 92 -1 92 1 0 3 -73 310 -159 672 -23 94 -43 180 -46 193
-5 21 -10 22 -100 22 -51 0 -96 -3 -98 -7z m127 -433 l33 -165 -60 -3 c-33 -2
-61 -1 -63 1 -3 3 24 209 47 355 2 12 8 -15 43 -188z"/>
<path d="M3222 1928 l3 -443 83 -3 82 -3 0 446 0 445 -85 0 -85 0 2 -442z"/>
<path d="M3502 1928 l3 -443 87 -3 88 -3 2 208 3 208 44 -115 c24 -63 60 -155
80 -205 l36 -90 93 -3 c50 -1 92 -1 92 2 0 2 -38 98 -84 213 -46 114 -87 218
-90 230 -5 15 18 85 74 228 44 113 80 208 80 211 0 2 -42 4 -92 4 l-93 0 -27
-73 c-14 -39 -46 -126 -70 -192 l-43 -120 -3 193 -2 192 -90 0 -90 0 2 -442z"/>
<path d="M4120 1925 l0 -445 85 0 85 0 0 445 0 445 -85 0 -85 0 0 -445z"/>
<path d="M4398 2363 c-2 -5 -4 -44 -3 -88 l0 -80 68 -3 c61 -3 67 -5 68 -25 1
-12 2 -170 3 -352 l1 -330 93 -3 92 -3 0 356 0 355 70 0 70 0 0 90 0 90 -229
0 c-127 0 -231 -3 -233 -7z"/>
<path d="M4293 634 c-7 -3 -13 -16 -13 -30 0 -31 44 -44 68 -20 29 29 -14 67
-55 50z"/>
<path d="M1940 600 l0 -30 90 0 c83 0 90 1 90 20 0 18 -7 20 -64 20 -36 0 -68
5 -71 10 -3 6 -15 10 -26 10 -14 0 -19 -7 -19 -30z"/>
<path d="M2400 600 l0 -30 90 0 c83 0 90 1 90 20 0 18 -7 20 -65 20 -37 0 -65
4 -65 10 0 6 -11 10 -25 10 -21 0 -25 -5 -25 -30z"/>
<path d="M3715 622 c-40 -8 -48 -52 -10 -52 15 0 25 6 25 14 0 8 9 18 20 21
42 13 15 26 -35 17z"/>
<path d="M4680 600 l0 -30 90 0 c83 0 90 1 90 20 0 18 -7 20 -64 20 -36 0 -68
5 -71 10 -3 6 -15 10 -26 10 -14 0 -19 -7 -19 -30z"/>
<path d="M1616 595 c-3 -9 -6 -19 -6 -21 0 -2 39 -4 86 -4 76 0 85 2 82 18 -5
25 -152 31 -162 7z"/>
<path d="M2702 598 c-23 -23 -11 -28 74 -28 76 0 85 2 82 18 -3 14 -16 18 -73
20 -46 2 -74 -1 -83 -10z"/>
<path d="M3771 601 c-14 -3 -26 -12 -29 -19 -3 -9 19 -12 83 -12 77 0 86 2 83
18 -3 13 -15 17 -58 19 -30 1 -66 -2 -79 -6z"/>
<path d="M4050 550 c0 -5 -15 -10 -34 -10 -45 0 -86 -16 -86 -34 0 -10 11 -12
45 -9 24 3 52 3 61 -1 26 -10 0 -32 -45 -40 -46 -7 -64 -25 -59 -63 3 -31 44
-58 72 -47 23 9 20 34 -4 34 -13 0 -20 7 -20 20 0 11 6 20 13 20 6 0 22 3 35
6 20 6 22 3 22 -40 0 -46 1 -47 28 -44 l27 3 3 108 3 107 -31 0 c-16 0 -30 -4
-30 -10z"/>
<path d="M1420 469 c0 -39 5 -79 10 -89 12 -23 74 -42 109 -33 52 12 61 30 61
115 0 77 0 78 -25 78 -24 0 -25 -2 -25 -75 0 -61 -3 -77 -16 -82 -35 -13 -49
11 -52 86 l-3 71 -29 0 -30 0 0 -71z"/>
<path d="M1642 524 c-47 -33 -19 -83 56 -99 24 -5 32 -12 30 -23 -3 -13 -15
-17 -51 -16 -46 0 -63 -15 -36 -32 24 -15 108 -8 129 11 40 36 23 80 -39 99
-57 16 -56 30 2 34 47 3 65 23 31 36 -30 11 -100 6 -122 -10z"/>
<path d="M1800 466 c0 -97 15 -118 88 -119 63 -1 92 21 92 70 0 18 5 33 10 33
6 0 10 9 10 20 0 11 -4 20 -10 20 -5 0 -10 11 -10 25 0 20 -5 25 -25 25 -20 0
-25 -5 -25 -24 0 -18 -6 -25 -22 -28 -13 -2 -24 -11 -26 -20 -3 -14 3 -18 23
-18 24 0 26 -3 23 -32 -2 -22 -9 -34 -21 -36 -35 -7 -47 17 -47 89 l0 69 -30
0 -30 0 0 -74z"/>
<path d="M2010 440 l0 -100 30 0 30 0 0 63 c0 69 15 101 46 95 16 -3 19 -13
22 -81 3 -74 4 -77 27 -77 25 0 25 1 25 84 0 64 -4 88 -16 100 -20 21 -63 20
-86 -1 -17 -15 -18 -15 -18 0 0 12 -9 17 -30 17 l-30 0 0 -100z"/>
<path d="M2280 439 l0 -102 66 6 c78 6 103 25 111 84 4 34 2 43 -21 60 l-26
21 23 15 22 16 -30 0 c-17 1 -41 -6 -54 -16 l-24 -16 27 -14 c14 -7 26 -19 27
-26 0 -7 2 -20 4 -30 4 -21 -28 -57 -50 -57 -12 0 -15 16 -15 80 l0 80 -30 0
-30 0 0 -101z"/>
<path d="M2482 528 c-20 -20 -14 -56 9 -63 l21 -7 -21 -15 c-13 -9 -21 -25
-21 -43 0 -54 71 -77 145 -46 l35 15 0 85 0 86 -30 0 c-27 0 -30 -3 -30 -29 0
-34 -12 -45 -40 -36 -26 8 -26 22 0 30 11 3 20 13 20 21 0 18 -70 20 -88 2z
m103 -118 c0 -18 -6 -26 -23 -28 -27 -4 -40 22 -22 44 19 22 45 13 45 -16z"/>
<path d="M2680 440 l0 -100 25 0 c25 0 25 1 25 81 l0 80 33 -3 32 -3 3 -77 3
-78 29 0 30 0 0 80 c0 107 -12 120 -110 120 l-70 0 0 -100z"/>
<path d="M2898 529 c-36 -20 -21 -37 28 -31 33 3 49 1 55 -9 14 -23 10 -85 -6
-99 -19 -16 -21 -14 -32 30 -7 28 -15 36 -37 38 -27 3 -28 2 -21 -30 13 -59
23 -75 50 -82 34 -9 92 10 105 34 12 22 13 110 2 126 -21 32 -107 45 -144 23z"/>
<path d="M3080 440 l0 -100 30 0 30 0 0 100 0 100 -30 0 -30 0 0 -100z"/>
<path d="M3217 529 c-10 -6 -26 -8 -36 -4 -12 3 -21 0 -25 -11 -4 -10 0 -17
11 -20 15 -4 18 -17 18 -77 l0 -72 40 -3 c59 -5 114 14 125 44 17 44 12 82
-13 101 l-24 17 21 18 c21 17 21 17 -8 18 -16 0 -38 -7 -48 -16 -17 -16 -17
-18 7 -40 30 -27 32 -54 7 -85 -13 -15 -25 -20 -37 -15 -15 5 -17 16 -13 76 3
39 2 72 -1 74 -4 3 -14 0 -24 -5z"/>
<path d="M3396 524 c-25 -25 -20 -29 36 -29 48 0 53 -2 62 -27 13 -38 -3 -82
-32 -86 -19 -3 -22 1 -22 27 0 28 -3 31 -30 31 -28 0 -30 -2 -30 -39 0 -22 5
-43 10 -46 6 -4 35 -7 65 -8 76 -2 100 22 100 99 0 47 -4 59 -24 75 -30 24
-112 26 -135 3z"/>
<path d="M3592 524 c-24 -17 -29 -56 -9 -72 6 -5 31 -16 55 -23 30 -9 42 -17
40 -28 -3 -12 -15 -16 -51 -15 -38 0 -47 -3 -45 -15 2 -8 19 -18 38 -22 72
-15 124 15 118 68 -3 24 -11 31 -56 47 -61 22 -58 34 12 38 47 3 49 4 32 21
-22 22 -103 23 -134 1z"/>
<path d="M3768 529 c-32 -18 -20 -34 24 -34 37 0 44 -3 52 -27 6 -18 6 -38 0
-55 -8 -23 -16 -29 -47 -31 -40 -3 -51 -26 -16 -35 38 -10 89 5 110 32 28 35
22 116 -11 143 -24 20 -84 24 -112 7z"/>
<path d="M4219 533 c-10 -2 -19 -12 -21 -21 -4 -15 2 -18 46 -17 46 0 51 -2
60 -27 12 -33 -2 -83 -23 -83 -7 0 -18 16 -25 35 -9 28 -17 36 -40 38 -22 3
-27 0 -23 -11 3 -8 11 -33 18 -55 13 -43 37 -55 91 -45 44 9 63 38 63 100 0
45 -4 58 -24 74 -22 18 -79 24 -122 12z"/>
<path d="M4398 530 c-32 -19 -21 -35 24 -35 l43 0 3 -77 3 -78 29 0 30 0 0 78
c0 49 -5 85 -13 96 -16 21 -94 32 -119 16z"/>
<path d="M4550 440 l0 -100 25 0 c25 0 25 1 25 81 l0 80 33 -3 32 -3 3 -77 3
-78 29 0 30 0 0 80 c0 107 -12 120 -110 120 l-70 0 0 -100z"/>
<path d="M4773 521 c-29 -27 -38 -89 -20 -133 16 -39 53 -53 103 -39 26 7 29
12 32 56 4 54 -4 67 -35 59 -17 -5 -23 -15 -25 -48 l-3 -41 -14 27 c-10 20
-11 37 -5 60 9 31 13 33 54 33 l45 0 0 -75 0 -75 30 0 30 0 3 87 3 87 -38 10
c-63 18 -136 14 -160 -8z"/>
</g>
</svg>
